<svg width="515" height="356" viewBox="0 0 515 356" fill="none" xmlns="http://www.w3.org/2000/svg">
<path d="M40 42.1414C40 41.0368 40.8954 40.1414 42 40.1414H473C474.105 40.1414 475 41.0368 475 42.1414V313.098C475 314.203 474.105 315.098 473 315.098H42C40.8954 315.098 40 314.203 40 313.098V42.1414Z" fill="white"/>
<path d="M42 41.1414H473V39.1414H42V41.1414ZM474 42.1414V313.098H476V42.1414H474ZM473 314.098H42V316.098H473V314.098ZM41 313.098V42.1414H39V313.098H41ZM42 314.098C41.4477 314.098 41 313.65 41 313.098H39C39 314.755 40.3432 316.098 42 316.098V314.098ZM474 313.098C474 313.65 473.552 314.098 473 314.098V316.098C474.657 316.098 476 314.755 476 313.098H474ZM473 41.1414C473.552 41.1414 474 41.5891 474 42.1414H476C476 40.4845 474.657 39.1414 473 39.1414V41.1414ZM42 39.1414C40.3432 39.1414 39 40.4845 39 42.1414H41C41 41.5891 41.4477 41.1414 42 41.1414V39.1414Z" fill="black" fill-opacity="0.1"/>
<path d="M140 147C140.354 154.083 145.343 159.501 149.444 164.889C152.077 168.347 156.072 175.618 161.222 176C170.263 176.67 173.275 165.127 174.833 157.333C175.813 152.434 174.076 147.895 172.889 143.444C171.509 138.269 171.387 139.556 173.778 144.667C179.218 156.298 186.38 168.445 187.778 181.444C189.017 192.972 184.744 215 169.778 215C163.541 215 157.216 215.33 151 214.778C150.531 214.736 144.614 214.415 144.444 213.778C143.951 211.927 166.041 205.527 167.556 205.056C194.708 196.608 222.261 188.669 249.889 181.944C272.998 176.32 297.245 171.499 319.056 161.722C322.937 159.982 327.232 158.72 331.389 157.889C346.694 154.828 361.015 148.713 375 142" stroke="black" stroke-width="3" stroke-linecap="round"/>
<path d="M197 181C198.95 181.244 199.206 191.572 201.944 188.833C203.903 186.875 203.437 182.674 205.556 180.556C207.86 178.251 208.875 179.372 211 181.556C213.248 183.866 214.96 186.356 216.778 189C218.247 191.137 217 183.816 217 181.222C217 179.042 216.437 175.721 217.056 173.556C217.987 170.296 223.87 175.169 224.5 175.944C227.784 179.987 230.593 185.593 234 189" stroke="black" stroke-width="3" stroke-linecap="round"/>
<path d="M238 178C240.4 177.7 239.542 167.139 235.778 167C229.04 166.75 230 169.244 230 175.556C230 179.444 230.25 186.86 235.444 187C242.116 187.18 244.065 184.87 247 179" stroke="black" stroke-width="3" stroke-linecap="round"/>
<path d="M248 164C248.38 168.18 250.196 171.945 251.778 175.778C252.35 177.165 253 181.612 253 180.111C253 177.391 250.911 165.011 256 167.556C262.575 170.843 263.769 179.59 271 182" stroke="black" stroke-width="3" stroke-linecap="round"/>
<path d="M274 160C270.238 164.18 273.9 179.475 280.556 175.778C283.173 174.324 287 166.444 287 163.556C287 158.01 276.33 155.165 272 153" stroke="black" stroke-width="3" stroke-linecap="round"/>
<path d="M286 156C289.839 160.886 292.68 166.95 294.778 172.778C296.371 177.204 293 163.482 293 158.778C293 155.626 292.077 147.246 297 147C303.461 146.677 308.273 157.273 312 161" stroke="black" stroke-width="3" stroke-linecap="round"/>
<path d="M212 213C232.844 199.451 260.024 197.314 281.833 185.5C287.749 182.296 294.647 179.015 300 175" stroke="black" stroke-width="3" stroke-linecap="round"/>
<path d="M228 210C238.938 211.094 248.666 207.231 259.222 204C271.768 200.159 283.83 195.312 296 190.444C298.478 189.453 301.238 188 304 188" stroke="black" stroke-width="3" stroke-linecap="round"/>
<rect x="40" y="4.1414" width="59.375" height="30" rx="3" fill="white"/>
<rect x="40.5" y="4.6414" width="58.375" height="29" rx="2.5" stroke="black" stroke-opacity="0.14902"/>
<path d="M51.3438 16.1414C51.2969 15.7456 51.1068 15.4383 50.7734 15.2195C50.4401 15.0008 50.0313 14.8914 49.5469 14.8914C49.1927 14.8914 48.8828 14.9487 48.6172 15.0633C48.3542 15.1779 48.1484 15.3354 48 15.5359C47.8542 15.7365 47.7813 15.9643 47.7813 16.2195C47.7813 16.4331 47.832 16.6167 47.9336 16.7703C48.0378 16.9214 48.1706 17.0477 48.332 17.1492C48.4935 17.2482 48.6628 17.3302 48.8398 17.3953C49.0169 17.4578 49.1797 17.5086 49.3281 17.5477L50.1406 17.7664C50.349 17.8211 50.5807 17.8966 50.8359 17.993C51.0938 18.0893 51.3398 18.2208 51.5742 18.3875C51.8112 18.5516 52.0065 18.7625 52.1602 19.0203C52.3138 19.2781 52.3906 19.5945 52.3906 19.9695C52.3906 20.4018 52.2773 20.7924 52.0508 21.1414C51.8268 21.4904 51.4987 21.7677 51.0664 21.9734C50.6367 22.1792 50.1146 22.282 49.5 22.282C48.9271 22.282 48.431 22.1896 48.0117 22.0047C47.5951 21.8198 47.2669 21.562 47.0273 21.2312C46.7904 20.9005 46.6563 20.5164 46.625 20.0789H47.625C47.651 20.381 47.7526 20.631 47.9297 20.8289C48.1094 21.0242 48.3359 21.17 48.6094 21.2664C48.8854 21.3602 49.1823 21.407 49.5 21.407C49.8698 21.407 50.2018 21.3471 50.4961 21.2273C50.7904 21.1049 51.0234 20.9357 51.1953 20.7195C51.3672 20.5008 51.4531 20.2456 51.4531 19.9539C51.4531 19.6883 51.3789 19.4721 51.2305 19.3055C51.082 19.1388 50.8867 19.0034 50.6445 18.8992C50.4023 18.795 50.1406 18.7039 49.8594 18.6258L48.875 18.3445C48.25 18.1648 47.7552 17.9083 47.3906 17.575C47.026 17.2417 46.8438 16.8055 46.8438 16.2664C46.8438 15.8185 46.9648 15.4279 47.207 15.0945C47.4518 14.7586 47.7799 14.4982 48.1914 14.3133C48.6055 14.1258 49.0677 14.032 49.5781 14.032C50.0938 14.032 50.5521 14.1245 50.9531 14.3094C51.3542 14.4917 51.6719 14.7417 51.9062 15.0594C52.1432 15.3771 52.2682 15.7378 52.2813 16.1414H51.3438ZM56.374 22.2664C55.7959 22.2664 55.2972 22.1388 54.8779 21.8836C54.4613 21.6258 54.1396 21.2664 53.9131 20.8055C53.6891 20.3419 53.5771 19.8029 53.5771 19.1883C53.5771 18.5737 53.6891 18.032 53.9131 17.5633C54.1396 17.0919 54.4548 16.7247 54.8584 16.4617C55.2646 16.1961 55.7386 16.0633 56.2803 16.0633C56.5928 16.0633 56.9014 16.1154 57.2061 16.2195C57.5107 16.3237 57.7881 16.493 58.0381 16.7273C58.2881 16.9591 58.4873 17.2664 58.6357 17.6492C58.7842 18.032 58.8584 18.5034 58.8584 19.0633V19.4539H54.2334V18.657H57.9209C57.9209 18.3185 57.8532 18.0164 57.7178 17.7508C57.585 17.4852 57.3949 17.2755 57.1475 17.1219C56.9027 16.9682 56.6136 16.8914 56.2803 16.8914C55.9131 16.8914 55.5954 16.9825 55.3271 17.1648C55.0615 17.3445 54.8571 17.5789 54.7139 17.868C54.5706 18.157 54.499 18.4669 54.499 18.7977V19.3289C54.499 19.782 54.5771 20.1661 54.7334 20.4812C54.8923 20.7937 55.1123 21.032 55.3936 21.1961C55.6748 21.3575 56.0016 21.4383 56.374 21.4383C56.6162 21.4383 56.835 21.4044 57.0303 21.3367C57.2282 21.2664 57.3988 21.1622 57.542 21.0242C57.6852 20.8836 57.7959 20.7091 57.874 20.5008L58.7646 20.7508C58.6709 21.0529 58.5133 21.3185 58.292 21.5477C58.0706 21.7742 57.7972 21.9513 57.4717 22.0789C57.1462 22.2039 56.7803 22.2664 56.374 22.2664ZM62.6982 22.2664C62.1357 22.2664 61.6514 22.1336 61.2451 21.868C60.8389 21.6023 60.5264 21.2365 60.3076 20.7703C60.0889 20.3042 59.9795 19.7716 59.9795 19.1727C59.9795 18.5633 60.0915 18.0255 60.3154 17.5594C60.542 17.0906 60.8571 16.7247 61.2607 16.4617C61.667 16.1961 62.141 16.0633 62.6826 16.0633C63.1045 16.0633 63.4847 16.1414 63.8232 16.2977C64.1618 16.4539 64.4391 16.6727 64.6553 16.9539C64.8714 17.2352 65.0055 17.5633 65.0576 17.9383H64.1357C64.0654 17.6648 63.9092 17.4227 63.667 17.2117C63.4274 16.9982 63.1045 16.8914 62.6982 16.8914C62.3389 16.8914 62.0238 16.9852 61.7529 17.1727C61.4847 17.3575 61.2751 17.6193 61.124 17.9578C60.9756 18.2937 60.9014 18.6883 60.9014 19.1414C60.9014 19.6049 60.9743 20.0086 61.1201 20.3523C61.2686 20.6961 61.4769 20.963 61.7451 21.1531C62.016 21.3432 62.3337 21.4383 62.6982 21.4383C62.9378 21.4383 63.1553 21.3966 63.3506 21.3133C63.5459 21.2299 63.7113 21.1102 63.8467 20.9539C63.9821 20.7977 64.0785 20.6102 64.1357 20.3914H65.0576C65.0055 20.7456 64.8766 21.0646 64.6709 21.3484C64.4678 21.6297 64.1982 21.8536 63.8623 22.0203C63.529 22.1844 63.141 22.2664 62.6982 22.2664ZM69.0146 16.1414V16.9227H65.9053V16.1414H69.0146ZM66.8115 14.7039H67.7334V20.4227C67.7334 20.6831 67.7712 20.8784 67.8467 21.0086C67.9248 21.1362 68.0238 21.2221 68.1436 21.2664C68.266 21.3081 68.3949 21.3289 68.5303 21.3289C68.6318 21.3289 68.7152 21.3237 68.7803 21.3133C68.8454 21.3003 68.8975 21.2898 68.9365 21.282L69.124 22.1102C69.0615 22.1336 68.9743 22.157 68.8623 22.1805C68.7503 22.2065 68.6084 22.2195 68.4365 22.2195C68.1761 22.2195 67.9209 22.1635 67.6709 22.0516C67.4235 21.9396 67.2178 21.769 67.0537 21.5398C66.8923 21.3107 66.8115 21.0216 66.8115 20.6727V14.7039ZM70.4014 22.1414V16.1414H71.3232V22.1414H70.4014ZM70.8701 15.1414C70.6904 15.1414 70.5355 15.0802 70.4053 14.9578C70.2777 14.8354 70.2139 14.6883 70.2139 14.5164C70.2139 14.3445 70.2777 14.1974 70.4053 14.075C70.5355 13.9526 70.6904 13.8914 70.8701 13.8914C71.0498 13.8914 71.2035 13.9526 71.3311 14.075C71.4613 14.1974 71.5264 14.3445 71.5264 14.5164C71.5264 14.6883 71.4613 14.8354 71.3311 14.9578C71.2035 15.0802 71.0498 15.1414 70.8701 15.1414ZM75.4492 22.2664C74.9076 22.2664 74.4323 22.1375 74.0234 21.8797C73.6172 21.6219 73.2995 21.2612 73.0703 20.7977C72.8438 20.3341 72.7305 19.7924 72.7305 19.1727C72.7305 18.5477 72.8438 18.0021 73.0703 17.5359C73.2995 17.0698 73.6172 16.7078 74.0234 16.45C74.4323 16.1922 74.9076 16.0633 75.4492 16.0633C75.9909 16.0633 76.4648 16.1922 76.8711 16.45C77.2799 16.7078 77.5977 17.0698 77.8242 17.5359C78.0534 18.0021 78.168 18.5477 78.168 19.1727C78.168 19.7924 78.0534 20.3341 77.8242 20.7977C77.5977 21.2612 77.2799 21.6219 76.8711 21.8797C76.4648 22.1375 75.9909 22.2664 75.4492 22.2664ZM75.4492 21.4383C75.8607 21.4383 76.1992 21.3328 76.4648 21.1219C76.7305 20.9109 76.9271 20.6336 77.0547 20.2898C77.1823 19.9461 77.2461 19.5737 77.2461 19.1727C77.2461 18.7716 77.1823 18.3979 77.0547 18.0516C76.9271 17.7052 76.7305 17.4253 76.4648 17.2117C76.1992 16.9982 75.8607 16.8914 75.4492 16.8914C75.0378 16.8914 74.6992 16.9982 74.4336 17.2117C74.168 17.4253 73.9714 17.7052 73.8438 18.0516C73.7161 18.3979 73.6523 18.7716 73.6523 19.1727C73.6523 19.5737 73.7161 19.9461 73.8438 20.2898C73.9714 20.6336 74.168 20.9109 74.4336 21.1219C74.6992 21.3328 75.0378 21.4383 75.4492 21.4383ZM80.4971 18.532V22.1414H79.5752V16.1414H80.4658V17.0789H80.5439C80.6846 16.7742 80.8981 16.5294 81.1846 16.3445C81.471 16.157 81.8408 16.0633 82.2939 16.0633C82.7002 16.0633 83.0557 16.1466 83.3604 16.3133C83.665 16.4773 83.902 16.7273 84.0713 17.0633C84.2406 17.3966 84.3252 17.8185 84.3252 18.3289V22.1414H83.4033V18.3914C83.4033 17.92 83.2809 17.5529 83.0361 17.2898C82.7913 17.0242 82.4554 16.8914 82.0283 16.8914C81.734 16.8914 81.471 16.9552 81.2393 17.0828C81.0101 17.2104 80.8291 17.3966 80.6963 17.6414C80.5635 17.8862 80.4971 18.1831 80.4971 18.532ZM91.9004 14.1414V22.1414H90.9316V15.157H90.8848L88.9316 16.4539V15.4695L90.9316 14.1414H91.9004Z" fill="black"/>
</svg>
